<svg width="1000" height="400" fill="none" xmlns="http://www.w3.org/2000/svg">
  <path fill="#000" d="M0 0h1000v400H0z"/>
  <path d="M240.625 165.945 204.102 272h-37.696l-36.328-106.055h34.57l20.118 73.633h1.172l19.921-73.633h34.766Zm81.055 60.352v-60.352h32.812V272h-31.25v-19.531h-1.172c-4.687 12.793-16.504 20.898-32.422 20.898-21.679 0-36.23-15.722-36.328-39.844v-67.578h33.008v61.328c0 11.622 6.445 18.75 16.992 18.75 10.157 0 18.457-6.933 18.36-19.726Zm103.515 47.656c-33.203 0-53.515-20.703-53.515-54.492 0-32.91 20.508-54.883 52.343-54.883 29.786 0 51.172 18.945 51.172 54.102v8.398h-71.093v.586c.097 13.574 8.3 22.461 21.679 22.461 8.985 0 15.723-3.906 18.36-10.156h30.664c-4.004 20.703-22.168 33.984-49.61 33.984Zm-21.093-66.211h40.429c-.195-11.328-8.398-19.336-19.726-19.336-11.621 0-20.215 8.399-20.703 19.336Zm155.664-5.859v25.39h-65.235v-25.39h65.235Zm84.375-3.125c-.879-7.031-7.325-11.524-16.016-11.524-8.203 0-14.551 3.614-14.453 9.18-.098 4.004 3.027 7.422 12.109 9.18l20.117 3.906c21.094 4.102 31.25 13.281 31.446 28.711-.196 21.68-20.117 35.742-48.828 35.742-30.371 0-47.95-13.476-50.196-34.57h32.813c1.269 7.617 7.715 11.621 17.578 11.719 8.887-.098 15.039-3.516 15.234-9.375-.195-4.786-4.297-7.618-13.476-9.571l-18.164-3.32c-20.899-3.906-31.446-14.453-31.25-30.664-.196-20.996 17.871-33.594 46.484-33.594 28.516 0 45.899 12.988 47.266 34.18h-30.664Zm108.593-32.813v24.219h-19.336v48.633c.098 6.641 3.418 8.691 8.985 8.789 2.734.195 8.008-.098 11.719-.391v25.196c-3.223.488-8.692 1.074-16.407 1.171-23.34-.097-37.304-9.667-37.109-31.054v-52.344h-14.258v-24.219h14.258v-25.39h32.812v25.39h19.336Zm12.11 76.563c-.098-23.535 18.164-31.934 39.258-33.203 7.714-.489 20.898-.977 25.39-1.172v-8.594c0-7.422-5.469-11.621-14.453-11.523-8.691-.098-14.355 3.808-15.625 10.742H768.75c1.465-18.75 17.285-34.18 47.07-34.18 26.172 0 46.582 12.402 46.68 35.352V272h-31.055v-14.844h-.781c-5.762 10.742-16.016 16.699-30.859 16.797-20.313-.098-35.059-10.449-34.961-31.445Zm31.25-1.367c-.098 7.129 5.664 10.937 13.672 10.937 11.23 0 20.019-7.324 19.922-17.773v-6.836c-4.004.097-15.137.683-20.118 1.172-8.3.879-13.574 5.468-13.476 12.5Z" fill="#FFF01E"/>
</svg>